<?xml version="1.0" encoding="UTF-8" standalone="no"?>
<!-- Created with Inkscape (http://www.inkscape.org/) -->

<svg
   viewBox="0 0 44.306068 54.825901"
   version="1.1"
   xmlns="http://www.w3.org/2000/svg"
   xmlns:svg="http://www.w3.org/2000/svg">
   <style>
      path {
      fill: #fff;
      }
   </style>
   <defs />
   <g
      transform="translate(-27.581523,-73.505856)">
      <g
         aria-label="A."
         transform="rotate(-90)"
         style="font-size:50.8px;line-height:1;font-family:'DejaVu Math TeX Gyre';-inkscape-font-specification:'DejaVu Math TeX Gyre';text-align:center;writing-mode:vertical-lr;text-anchor:middle;fill:#999999;fill-opacity:0.6;stroke-width:0.1">
         <path
            d="m -73.975756,56.588323 q 0.3556,0.3048 0.4572,0.9144 0.0508,0.1016 -0.1016,0.2032 -0.1524,0.1016 -0.1524,0.2032 0,0.4572 -0.3048,1.0668 -0.254,0.6096 -0.762,1.1684 -0.508,0.5588 -1.0668,1.016 -0.254,0.254 -0.5588,0.4572 -0.3048,0.2032 -0.5588,0.3556 -0.7112,0.508 -1.6764,0.8128 -0.6096,0.1016 -1.27,0 -0.6096,-0.0508 -1.524,-0.1524 -0.5588,-0.1016 -0.7112,-0.2032 -0.1524,-0.0508 -0.6096,-0.1524 -0.6604,-0.1016 -1.3208,-0.2032 -0.6096,-0.1016 -1.27,-0.254 -0.7112,0.1016 -1.4224,0.1524 -0.7112,0.1016 -1.4224,0.2032 l -1.27,0.1524 q -1.1684,-0.254 -2.3368,-0.508 -1.1684,-0.254 -2.3368,-0.508 -0.4064,-0.1016 -0.7112,-0.1524 -0.254,-0.0508 -0.508,-0.0508 0,0.2032 0,0.254 0,0.0508 0,0.0508 0.0508,0.0508 0.0508,0.1016 0.0508,0.1016 0.1016,0.4064 l 0.3556,0.7112 0.2032,1.27 q -0.1016,0.3556 -0.762,0.508 -0.6096,0.2032 -0.8636,0.2032 -0.4064,0 -0.8636,-0.4572 -0.3048,-0.508 -0.6096,-1.6256 l -0.3556,-0.9144 -0.8128,-0.762 q -0.1524,-0.3048 -0.558799,-0.508 -0.4064,-0.1524 -1.270005,-0.3048 -2.0828,-0.3048 -5.1308,-0.4572 -0.1524,0 -0.508,0 -0.3048,0.0508 -0.5588,-0.1524 -0.6604,-0.2032 -1.27,-0.254 -0.5588,0 -1.1176,0 -0.508,0 -1.016,0 -0.4572,0.0508 -0.9652,0 -0.254,-0.0508 -0.7112,-0.0508 -0.3048,-0.0508 -0.6604,-0.1016 -0.3048,0 -0.6604,0.0508 -0.5588,-0.0508 -1.1176,-0.0508 -0.508,0 -1.0668,0 -0.254,0 -0.4064,-0.0508 -0.2032,0 -0.4064,0 -0.8636,0 -1.5748,0.0508 -0.7112,0.1016 -1.3208,0.2032 -0.254,0.1016 -0.5588,0.1524 -0.3556,0.1016 -0.7112,0.2032 l -0.8636,0.1016 q -0.7112,0.1016 -1.27,0 -0.6096,-0.1016 -1.1176,0 -0.508,0 -0.8128,0.3556 -0.4572,0 -0.6096,-0.0508 -0.762,-0.0508 -1.27,-0.1524 -0.508,-0.0508 -1.2192,-0.1524 -0.1016,-0.1016 -0.1524,-0.4064 -0.0508,-0.254 -0.1524,-0.4572 -0.1016,-0.3048 -0.1016,-0.3556 l -0.1016,-0.7112 q -0.0508,-0.3048 -0.0508,-0.6096 -0.0508,-0.3048 -0.0508,-0.5588 0,-0.8636 0.4064,-1.524 0.3556,-0.6096 1.524,-0.9652 0.254,-0.2032 0.5588,-0.4064 0.3048,-0.1524 0.6604,-0.3556 l 1.2192,-0.7112 q 0.3048,-0.2032 0.5588,-0.3556 0.254,-0.1524 0.4064,-0.3048 l 0.5588,-0.2032 q 0.5588,-0.1524 1.1176,-0.254 0.508,-0.1016 1.0668,-0.2032 0.7112,-0.1016 1.4224,-0.2032 0.7112,-0.1016 1.4224,-0.2032 0.4064,-0.0508 0.8636,-0.1016 0.4572,0 0.8636,0 l 0.9144,-0.1524 q 0.3048,-0.1016 0.4572,-0.1016 0.3556,0 1.1176,0.1016 0.762,0.1524 1.4732,0.3048 0.4064,0.0508 0.7112,0.1016 0.3556,0.0508 0.6096,0.0508 0.7112,0.0508 1.3716,0.0508 0.7112,0.0508 1.4224,0.1524 1.4732,0.1524 2.6924,0.3556 1.27,0.2032 2.1336,0.3556 0.8636,0.2032 1.3716,0.3048 0.5588,0.1524 0.8128,0.1524 0.1016,-0.0508 0.2032,-0.4572 0,-0.3048 -0.1016,-0.4572 l -0.4572,-2.286 -0.4064,-1.8796 q -0.0508,-1.016 -0.1016,-2.3876 0,-1.3208 -0.1016,-2.286 -0.508,-0.4064 -1.016,-0.762 -0.508,-0.3048 -0.9652,-0.7112 -0.7112,-0.5588 -1.3716,-1.016 -0.6096,-0.4572 -1.3208,-0.9144 -0.4064,-0.508 -0.8636,-0.9652 -0.4064,-0.4572 -0.7112,-0.762 l -0.1524,-0.1016 q -0.762,-0.762 -1.6256,-1.27 l -2.3876,-1.3716 -0.1016,-0.1016 -1.4224,-0.8128 q -0.3556,-0.2032 -0.7112,-0.4064 -0.3048,-0.2032 -0.5588,-0.4572 -0.508,-0.4064 -0.9652,-0.6604 -0.4572,-0.3048 -0.8636,-0.6096 l -0.8128,-0.4572 q -0.5588,-0.5588 -1.2192,-1.0668 -0.2032,-0.254 -0.3556,-0.4064 -0.2032,-0.2032 -0.3556,-0.4572 v -0.0508 q -0.7112,-0.9144 -0.6096,-1.27 0.0508,-0.4572 0.7112,-0.4572 0.0508,-0.0508 0.1016,-0.0508 0.2032,0.0508 0.4572,0.1016 0.2032,0.0508 0.4572,0.1524 0.0508,0 0.0508,0.0508 0,0 0.0508,0 0.1016,0 0.1524,0.0508 0.0508,0.0508 0.1524,0.1016 l 0.762,0.254 0.4572,0.4572 q 0.5588,0.508 1.2192,1.016 0.6096,0.508 1.2192,0.9652 l 0.2032,0.1524 1.2192,0.9652 2.2352,1.4224 q 0.8128,0.5588 1.6764,1.0668 0.9144,0.508 1.778,1.016 l 1.778,1.1176 q 1.1176,0.7112 1.8796,1.1684 0.8128,0.4572 1.27,0.762 0,-0.3556 0,-0.7112 0,-0.3048 0.0508,-0.6604 0.254,-0.9652 0.6604,-0.9652 0.2032,-0.254 0.4064,-0.2032 0.4064,0 1.016005,0.762 0.254,0.254 0.4064,0.508 0.152399,0.3048 0.355599,0.6604 -0.1016,0.4064 0,0.8128 0.1016,0.4064 0.1016,0.8128 0,0.5588 0.1016,0.9144 0.1016,0.4064 0.4064,0.8128 0.7112,0.3048 2.1844,1.1684 1.524,0.9144 3.2004,1.778 1.3208,0.7112 2.54,1.4732 1.27,0.8128 2.6924,1.3208 l 1.3716,1.016 q 0.7112,0.6096 1.4732,1.27 0.8128,0.6604 1.778,1.4224 2.54,1.8288 4.3688,3.1496 1.8288,1.3208 3.302,2.032 0.254,0.1016 0.4572,0.2032 0.254,0.1016 0.4572,0.2032 z m -5.2324,-0.6096 q 0.1016,-0.0508 0.1524,-0.1524 0.1016,-0.0508 0.2032,-0.1016 -0.5588,-0.3556 -1.2192,-0.8128 -0.6604,-0.4572 -1.1176,-0.8128 -0.254,-0.2032 -0.7112,-0.4572 -0.4572,-0.254 -0.6604,-0.4064 -0.254,-0.254 -0.6096,-0.5588 -0.3556,-0.254 -0.7112,-0.4572 l -1.1684,-0.6096 q -0.3556,-0.2032 -0.7112,-0.3556 -0.3556,-0.1524 -0.6604,-0.3556 -0.3048,-0.1524 -0.6096,-0.3556 -0.3048,-0.1524 -0.6096,-0.3556 -0.3556,-0.3556 -0.9652,-0.5588 -0.8128,-0.3048 -1.6256,-0.8128 l -1.9812,-1.1176 q -1.2192,-0.6096 -2.5908,-1.3208 -1.3716,-0.7112 -2.6416,-1.3208 -0.9144,-0.508 -1.3208,-0.508 0,0.1016 -0.0508,0.2032 0,0.1524 0.0508,0.4064 0,0.6096 0.254,1.4224 0.3048,0.8636 0.3048,1.3716 0,0.2032 -0.0508,0.254 v 0.5588 q 0.1016,0.5588 0.1524,1.016 0.1016,0.508 0.2032,0.9144 0.1016,0.4064 0.2032,0.7112 0.1016,0.3048 0.2032,0.6604 l 0.3048,1.1176 q 0.4572,0.0508 0.9144,0.0508 0.4572,0.0508 0.9652,0.1524 0.508,0.1016 0.9144,0.1524 0.4064,0.1016 0.3556,0.0508 1.1176,0.2032 2.3368,0.4064 1.2192,0.254 2.4384,0.508 1.27,0.254 2.4384,0.4572 1.1684,0.254 2.1336,0.4572 0.7112,0.1524 1.3208,0.2032 0.6604,0.1016 1.0668,0.2032 0.8636,0.1016 1.6256,0.1524 0.8128,0.0508 1.4732,0 z"
         />
         <path
            d="m -116.03816,69.186724 q 0.254,-1.4732 1.016,-2.3368 0.762,-0.8128 1.6256,-0.9144 1.3716,-0.1016 1.9304,0.6096 0.6096,0.7112 0.6096,1.8796 0,1.1684 -0.508,2.1844 -0.4572,1.016 -1.778,1.27 -0.7112,0.0508 -1.27,-0.2032 -0.5588,-0.2032 -0.9144,-0.5588 -0.4064,-0.3556 -0.6096,-0.762 -0.2032,-0.4064 -0.2032,-0.6604 0,-0.2032 0.1016,-0.508 z"
         />
      </g>
   </g>
</svg>